<svg width="16.000000" height="16.000000" viewBox="0 0 16 16" fill="none" xmlns="http://www.w3.org/2000/svg" xmlns:xlink="http://www.w3.org/1999/xlink">
	<desc>
			Created with Pixso.
	</desc>
	<defs>
		<clipPath id="clip127_1">
			<rect id="chrome" width="16.000000" height="16.000000" fill="white" fill-opacity="0"/>
		</clipPath>
	</defs>
	<g clip-path="url(#clip127_1)">
		<path id="path" d="M1.93 2.78C5.65 -1.55 12.54 -0.69 15.12 4.37L8.92 4.37C7.81 4.37 7.09 4.34 6.31 4.75C5.39 5.23 4.7 6.13 4.46 7.18L1.93 2.78Z" fill="#EA4335" fill-opacity="1.000000" fill-rule="nonzero"/>
		<path id="path" d="M5.33 8C5.33 9.46 6.53 10.65 7.99 10.65C9.46 10.65 10.65 9.46 10.65 8C10.65 6.53 9.46 5.33 7.99 5.33C6.53 5.33 5.33 6.53 5.33 8Z" fill="#4285F4" fill-opacity="1.000000" fill-rule="nonzero"/>
		<path id="path" d="M9.02 11.48C7.53 11.92 5.79 11.43 4.83 9.78C4.1 8.52 2.17 5.16 1.29 3.63C-1.78 8.33 0.87 14.75 6.44 15.84L9.02 11.48Z" fill="#34A853" fill-opacity="1.000000" fill-rule="nonzero"/>
		<path id="path" d="M10.46 5.33C10.54 5.4 10.61 5.48 10.68 5.55C10.74 5.63 10.81 5.71 10.87 5.79C10.93 5.87 10.99 5.95 11.05 6.04C11.1 6.12 11.15 6.21 11.2 6.3C11.25 6.39 11.29 6.48 11.33 6.58C11.37 6.67 11.41 6.77 11.44 6.86C11.47 6.96 11.5 7.06 11.52 7.16C11.54 7.26 11.56 7.36 11.58 7.46C11.59 7.56 11.6 7.66 11.61 7.76C11.62 7.86 11.62 7.96 11.62 8.07C11.62 8.17 11.61 8.27 11.6 8.37C11.59 8.47 11.57 8.57 11.56 8.67C11.54 8.77 11.51 8.87 11.49 8.97C11.46 9.07 11.43 9.17 11.39 9.26C11.36 9.36 11.32 9.45 11.27 9.54C11.23 9.64 11.18 9.73 11.13 9.81C10.5 10.91 8.47 14.32 7.49 15.98C13.24 16.33 17.43 10.7 15.54 5.33L10.46 5.33Z" fill="#FBBC05" fill-opacity="1.000000" fill-rule="nonzero"/>
	</g>
</svg>
