<?xml version="1.0" standalone="no"?><!DOCTYPE svg PUBLIC "-//W3C//DTD SVG 1.1//EN" "http://www.w3.org/Graphics/SVG/1.1/DTD/svg11.dtd"><svg class="icon" width="200px" height="200.00px" viewBox="0 0 1024 1024" version="1.1" xmlns="http://www.w3.org/2000/svg"><path d="M112.099333 497.068666c-44.389765-77.392846-53.398514-149.846829-21.842392-204.46731 42.240824-73.222962 148.306872-98.785251 282.40514-74.37793a13.758617 13.758617 0 0 1-1.859948 27.390238 14.299602 14.299602 0 0 1-3.142913-0.35299l0.099998 0.031999c-124.027548-22.579372-218.578917 0.224994-253.66794 61.0673-25.88628 44.774754-18.092496 107.283014 21.90239 177.045073a13.760617 13.760617 0 1 1-23.799338 13.727618l-0.031999-0.063998z m638.034242-259.537777c78.482816 1.025971 134.964244 25.49929 160.395536 69.535065 35.056024 60.682311 7.699786 153.727721-73.479955 249.626052a13.766617 13.766617 0 1 0 20.911418 17.832504l0.031999-0.031999c87.848555-103.757112 118.510702-208.094208 76.334876-281.186174-31.044136-53.758504-96.632311-82.107715-183.841883-83.257683a8.707758 8.707758 0 0 0-0.929975-0.031999 13.759617 13.759617 0 1 0 0 27.519234h0.544985zM670.847782 889.195752a13.506624 13.506624 0 0 0-7.087803-1.956946 13.810616 13.810616 0 0 0-11.770672 6.606816l-0.031999 0.063999c-39.930889 66.424151-88.939525 102.602144-139.42212 102.602144-70.208046 0-137.177182-70.43304-179.610001-188.943741a13.774617 13.774617 0 0 0-26.877252 4.233882 13.544623 13.544623 0 0 0 0.993972 5.131857l-0.031999-0.099997c45.898723 128.196432 121.012632 207.161234 205.429283 207.161234 61.580286 0 118.5747-41.983832 163.060462-115.880775a13.558623 13.558623 0 0 0 1.988944-7.119802 13.727618 13.727618 0 0 0-6.574817-11.738673l-0.063998-0.031999zM985.423027 778.286839a65.878166 65.878166 0 0 1-104.366096 53.337515l0.191995 0.127997c-104.976078 61.80528-305.594495 30.378155-494.341241-78.674811-80.407762-46.409708-150.840802-102.282153-205.044294-161.873494a13.743617 13.743617 0 0 1 9.782728-23.413349 13.610621 13.610621 0 0 1 10.519707 4.906864l0.031999 0.031999c52.247546 57.443401 120.467647 111.582894 198.437478 156.549643 178.19504 102.891136 365.76382 133.425287 461.727149 81.497731a65.853167 65.853167 0 1 1 123.065575-32.618092v0.159996z m-815.177312 0v0.127996a65.846167 65.846167 0 1 1-98.016272-57.4754l0.320991-0.159996c-9.974722-123.033576 119.312679-287.985985 314.73524-400.788845 81.177741-46.858696 165.658389-80.150769 245.072179-97.118297a12.111663 12.111663 0 0 1 1.923947-0.127996 13.759617 13.759617 0 0 1 3.94489 26.94125l-0.099997 0.031999c-76.558869 16.421543-158.345593 48.622647-237.117401 94.071382-184.068877 106.259043-305.691492 259.440779-301.391611 368.938731 1.635954-0.127996 3.206911-0.256993 4.842865-0.256993a65.826168 65.826168 0 0 1 65.814168 65.814169z m276.442306-714.785106a65.859167 65.859167 0 0 1 131.628336-0.099998v0.127997c0 0.993972-0.099997 1.923946-0.127996 2.85492 109.016966 56.324432 184.741858 248.475084 184.741858 470.554904 0 91.312459-12.732646 178.93702-36.531983 254.885906a13.760617 13.760617 0 0 1-27.070247-3.499903 13.335629 13.335629 0 0 1 0.865976-4.810866l-0.031999 0.099997c22.936362-73.226962 35.282018-158.0926 35.282018-246.675134 0-209.11818-69.535065-388.953175-164.503421-443.156666a65.784169 65.784169 0 0 1-124.251542-30.149161v-0.099997z m55.743448 426.83112a47.642674 47.642674 0 1 0 20.399433 93.07641l-0.320991 0.063998a47.642674 47.642674 0 1 0-20.399433-93.07641l0.320991-0.063998z" fill="#47848F" /></svg>