<svg width="16.000000" height="16.000000" viewBox="0 0 16 16" fill="none" xmlns="http://www.w3.org/2000/svg" xmlns:xlink="http://www.w3.org/1999/xlink">
	<desc>
			Created with Pixso.
	</desc>
	<defs>
		<clipPath id="clip120_3">
			<rect id="后台管理" width="16.000000" height="16.000000" fill="white" fill-opacity="0"/>
		</clipPath>
	</defs>
	<g clip-path="url(#clip120_3)">
		<path id="path" d="M12.79 14.93C12.83 14.93 12.86 14.93 12.9 14.94C12.93 14.95 12.96 14.96 13 14.97C13.03 14.99 13.06 15 13.09 15.02C13.11 15.04 13.14 15.06 13.16 15.09C13.19 15.11 13.21 15.14 13.23 15.17C13.25 15.2 13.26 15.23 13.28 15.26C13.29 15.29 13.3 15.33 13.31 15.36C13.31 15.39 13.32 15.43 13.32 15.46C13.32 15.5 13.31 15.53 13.31 15.56C13.3 15.6 13.29 15.63 13.28 15.66C13.26 15.7 13.25 15.73 13.23 15.75C13.21 15.78 13.19 15.81 13.16 15.83C13.14 15.86 13.11 15.88 13.09 15.9C13.06 15.92 13.03 15.94 13 15.95C12.96 15.96 12.93 15.98 12.9 15.98C12.86 15.99 12.83 15.99 12.79 16L3.2 16C3.16 15.99 3.13 15.99 3.09 15.98C3.06 15.98 3.03 15.96 2.99 15.95C2.96 15.94 2.93 15.92 2.9 15.9C2.88 15.88 2.85 15.86 2.83 15.83C2.8 15.81 2.78 15.78 2.76 15.75C2.74 15.73 2.73 15.7 2.71 15.66C2.7 15.63 2.69 15.6 2.68 15.56C2.68 15.53 2.67 15.5 2.67 15.46C2.67 15.43 2.68 15.39 2.68 15.36C2.69 15.33 2.7 15.29 2.71 15.26C2.73 15.23 2.74 15.2 2.76 15.17C2.78 15.14 2.8 15.11 2.83 15.09C2.85 15.06 2.88 15.04 2.9 15.02C2.93 15 2.96 14.99 2.99 14.97C3.03 14.96 3.06 14.95 3.09 14.94C3.13 14.93 3.16 14.93 3.2 14.93L12.79 14.93ZM13.33 0C14.8 0 16 1.11 16 2.48L16 11.37C15.99 12.75 14.8 13.86 13.33 13.86L2.66 13.86C1.19 13.86 0 12.75 0 11.37L0 2.48C0 1.11 1.19 0 2.66 0L13.33 0ZM13.33 1.06L2.66 1.06C1.78 1.06 1.06 1.7 1.06 2.48L1.06 11.37C1.06 12.16 1.78 12.79 2.66 12.79L13.33 12.79C14.21 12.79 14.93 12.16 14.93 11.37L14.93 2.48C14.93 1.7 14.21 1.06 13.33 1.06ZM9.04 4.85L9.14 4.9C9.32 5.01 9.38 5.25 9.28 5.45L7.73 8.32C7.64 8.5 7.43 8.58 7.26 8.5L7.22 8.47L7.12 8.42C6.94 8.31 6.88 8.07 6.98 7.87L8.52 5C8.63 4.81 8.86 4.74 9.04 4.85ZM4.38 4.92C4.4 4.9 4.42 4.88 4.44 4.87C4.45 4.86 4.48 4.84 4.5 4.83C4.52 4.82 4.54 4.81 4.57 4.81C4.59 4.8 4.61 4.8 4.64 4.8C4.66 4.79 4.69 4.8 4.71 4.8C4.73 4.8 4.76 4.81 4.78 4.82C4.8 4.82 4.83 4.83 4.85 4.85C4.87 4.86 4.89 4.87 4.91 4.89L4.94 4.92C5.08 5.08 5.09 5.32 4.97 5.49L4.94 5.52L3.88 6.66L4.95 7.8C4.96 7.82 4.98 7.85 5 7.87C5.01 7.89 5.02 7.92 5.03 7.94C5.04 7.97 5.05 7.99 5.05 8.02C5.06 8.05 5.06 8.08 5.06 8.1C5.06 8.13 5.06 8.16 5.05 8.19C5.05 8.21 5.04 8.24 5.03 8.26C5.02 8.29 5.01 8.31 5 8.34C4.98 8.36 4.96 8.38 4.95 8.4C4.8 8.56 4.57 8.57 4.42 8.43L4.39 8.4L3.05 6.97C3.01 6.93 2.98 6.89 2.96 6.84C2.94 6.79 2.93 6.74 2.93 6.68C2.93 6.63 2.93 6.58 2.95 6.53C2.96 6.48 2.99 6.43 3.02 6.39L3.05 6.35L4.38 4.92ZM11.04 4.92C11.06 4.9 11.08 4.88 11.1 4.87C11.12 4.86 11.14 4.84 11.16 4.83C11.18 4.82 11.21 4.81 11.23 4.81C11.25 4.8 11.28 4.8 11.3 4.8C11.33 4.79 11.35 4.8 11.37 4.8C11.4 4.8 11.42 4.81 11.45 4.82C11.47 4.82 11.49 4.83 11.51 4.85C11.53 4.86 11.55 4.87 11.57 4.89L11.6 4.92L12.94 6.36C13.02 6.44 13.06 6.55 13.06 6.66C13.06 6.76 13.03 6.86 12.98 6.93L12.94 6.97L11.6 8.4C11.46 8.56 11.23 8.57 11.08 8.43L11.04 8.4C11.01 8.36 10.98 8.32 10.96 8.27C10.94 8.22 10.93 8.17 10.93 8.12C10.93 8.07 10.93 8.02 10.95 7.97C10.96 7.92 10.98 7.88 11.02 7.84L11.04 7.8L12.11 6.66L11.04 5.52C11.03 5.5 11.01 5.48 10.99 5.45C10.98 5.43 10.97 5.41 10.96 5.38C10.95 5.35 10.94 5.33 10.94 5.3C10.93 5.27 10.93 5.25 10.93 5.22C10.93 5.19 10.93 5.16 10.94 5.14C10.94 5.11 10.95 5.08 10.96 5.06C10.97 5.03 10.98 5.01 11 4.98C11.01 4.96 11.03 4.94 11.04 4.92Z" fill="#121649" fill-opacity="1.000000" fill-rule="nonzero"/>
	</g>
</svg>
